<svg aria-hidden="true" style="position: absolute; width: 0; height: 0; overflow: hidden;" version="1.1" xmlns="http://www.w3.org/2000/svg" xmlns:xlink="http://www.w3.org/1999/xlink">
<defs>
<symbol id="icon-letter" viewBox="0 0 45 32">
<path fill="#fff" style="fill: var(--color1, #fff)" d="M5.024 0.28h34.318c3.237 0 4.869 1.528 4.869 4.636v21.808c0 3.082-1.632 4.636-4.869 4.636h-34.318c-3.237 0-4.869-1.554-4.869-4.636v-21.808c0-3.108 1.632-4.636 4.869-4.636zM22.169 22.554l17.457-14.323c0.622-0.518 1.114-1.709 0.337-2.771-0.751-1.062-2.124-1.088-3.030-0.44l-14.763 9.997-14.737-9.997c-0.907-0.647-2.279-0.622-3.030 0.44-0.777 1.062-0.285 2.253 0.337 2.771l17.431 14.323z"></path>
</symbol>
<symbol id="icon-linkedIn" viewBox="0 0 31 32">
<path fill="#fff" style="fill: var(--color1, #fff)" d="M26.643 27.209h-4.626v-7.259c0-1.731-0.036-3.955-2.419-3.955-2.412 0-2.78 1.878-2.78 3.827v7.386h-4.632v-14.925h4.449v2.036h0.060c0.622-1.176 2.134-2.412 4.389-2.412 4.692 0 5.563 3.089 5.563 7.106v8.195l-0.005 0.001zM6.954 10.243c-0.354 0-0.704-0.069-1.030-0.205s-0.623-0.334-0.873-0.584c-0.25-0.25-0.448-0.547-0.582-0.874s-0.204-0.677-0.203-1.031c0.001-0.532 0.159-1.052 0.455-1.494s0.717-0.787 1.208-0.99 1.033-0.256 1.555-0.152c0.522 0.104 1.001 0.361 1.377 0.738s0.632 0.856 0.735 1.378c0.103 0.522 0.050 1.063-0.154 1.554s-0.549 0.911-0.992 1.207-0.963 0.453-1.495 0.452zM9.274 27.209h-4.641v-14.925h4.641v14.925zM28.965 0.555h-26.659c-1.274 0-2.307 1.008-2.307 2.255v26.767c0 1.247 1.033 2.255 2.307 2.255h26.654c1.272 0 2.315-1.008 2.315-2.255v-26.767c0-1.247-1.044-2.255-2.315-2.255h0.005z"></path>
</symbol>
<symbol id="icon-phone" viewBox="0 0 32 32">
<path fill="#fff" style="fill: var(--color1, #fff)" d="M21.513 22.792l2.698-2.698c0.363-0.359 0.823-0.605 1.324-0.707s1.020-0.058 1.495 0.129l3.289 1.313c0.48 0.195 0.892 0.528 1.184 0.957s0.45 0.934 0.454 1.453v6.023c-0.003 0.353-0.077 0.701-0.218 1.025s-0.346 0.615-0.603 0.857c-0.257 0.242-0.56 0.43-0.891 0.551s-0.683 0.175-1.035 0.158c-23.045-1.434-27.695-20.949-28.574-28.418-0.041-0.367-0.004-0.738 0.109-1.089s0.299-0.675 0.546-0.949c0.247-0.274 0.549-0.493 0.887-0.642s0.703-0.225 1.072-0.223h5.819c0.519 0.002 1.026 0.158 1.455 0.45s0.762 0.706 0.954 1.188l1.313 3.289c0.193 0.473 0.242 0.993 0.142 1.495s-0.347 0.962-0.708 1.324l-2.698 2.698c0 0 1.554 10.517 11.986 11.818z"></path>
</symbol>
<symbol id="icon-rectangle-contacts" viewBox="0 0 105 32">
<path d="M104.615 28.322c0 2.052-1.662 3.715-3.712 3.715h-91.457c-1.727 0-3.226-1.193-3.616-2.877l-5.704-24.645c-0.539-2.329 1.228-4.554 3.616-4.554h97.161c2.050 0 3.712 1.664 3.712 3.715z"></path>
</symbol>
<symbol id="icon-rectangle-label" viewBox="0 0 132 32">
<path d="M0 24.429c0 4.231 3.43 7.663 7.661 7.663h103.87c2.524-0 4.763-1.222 6.159-3.106l0.015-0.021 12.379-16.858c3.716-5.061 0.104-12.199-6.174-12.199h-116.249c-4.231 0-7.661 3.432-7.661 7.663z"></path>
</symbol>
<symbol id="icon-rectangle-photo" viewBox="0 0 43 32">
<path d="M0 3.671c0-2.053 1.662-3.717 3.712-3.717h29.59c1.727 0 3.226 1.193 3.616 2.878l5.704 24.657c0.539 2.33-1.228 4.556-3.616 4.556h-35.294c-2.050 0-3.712-1.664-3.712-3.717z"></path>
</symbol>
</defs>
</svg>
