<svg width="45" height="32" viewBox="0 0 45 32" fill="none" xmlns="http://www.w3.org/2000/svg">
<path d="M5.02352 0.279907H39.3412C42.5787 0.279907 44.2104 1.80802 44.2104 4.91603V26.7239C44.2104 29.8061 42.5787 31.3601 39.3412 31.3601H5.02352C1.78601 31.3601 0.154297 29.8061 0.154297 26.7239V4.91603C0.154297 1.80802 1.78601 0.279907 5.02352 0.279907ZM22.1694 22.554L39.6261 8.23125C40.2477 7.71325 40.7398 6.52184 39.9628 5.45993C39.2117 4.39803 37.839 4.37213 36.9325 5.01963L22.1694 15.0171L7.43224 5.01963C6.52573 4.37213 5.15302 4.39803 4.40192 5.45993C3.62492 6.52184 4.11702 7.71325 4.73862 8.23125L22.1694 22.554Z" fill="white"/>
</svg>
