<svg width="52" height="53" viewBox="0 0 52 53" fill="none" xmlns="http://www.w3.org/2000/svg">
<path d="M44.1274 45.065H36.4658V33.0424C36.4658 30.1756 36.4059 26.4913 32.4593 26.4913C28.4642 26.4913 27.8556 29.601 27.8556 32.8304V45.0633H20.1843V20.3433H27.5529V23.7152H27.6516C28.6812 21.7678 31.1854 19.7201 34.9215 19.7201C42.6931 19.7201 44.1354 24.837 44.1354 31.4901V45.0633L44.1274 45.065ZM11.5175 16.9649C10.9319 16.9651 10.3521 16.8498 9.81117 16.6256C9.27026 16.4014 8.7789 16.0727 8.36523 15.6582C7.95157 15.2438 7.62372 14.7519 7.40048 14.2105C7.17724 13.6692 7.06298 13.0892 7.06426 12.5036C7.06522 11.6223 7.32749 10.761 7.81789 10.0288C8.3083 9.29647 9.00483 8.72603 9.81941 8.38958C10.634 8.05312 11.53 7.96575 12.3943 8.13851C13.2585 8.31127 14.0521 8.73641 14.6747 9.36018C15.2974 9.98394 15.7211 10.7783 15.8923 11.6429C16.0635 12.5074 15.9745 13.4033 15.6365 14.2173C15.2986 15.0312 14.7269 15.7267 13.9937 16.2158C13.2605 16.7049 12.3988 16.9656 11.5175 16.9649ZM15.3604 45.065H7.67291V20.3449H15.3604V45.065ZM47.9735 0.9198H3.82027C1.71103 0.9198 0 2.58874 0 4.65428V48.9872C0 51.0527 1.71103 52.7217 3.82027 52.7217H47.9654C50.0714 52.7217 51.8003 51.0527 51.8003 48.9872V4.65428C51.8003 2.58874 50.0714 0.9198 47.9654 0.9198H47.9735Z" fill="white"/>
</svg>
