<svg width="43" height="43" viewBox="0 0 43 43" fill="white" xmlns="http://www.w3.org/2000/svg">
<path fill="white" d="M28.9086 30.6269L32.5346 27.0009C33.023 26.5185 33.6409 26.1884 34.3133 26.0505C34.9857 25.9125 35.6837 25.9728 36.3225 26.2239L40.7418 27.9883C41.3873 28.2504 41.9409 28.6976 42.3327 29.2738C42.7244 29.8499 42.9369 30.5291 42.9433 31.2258V39.3196C42.9395 39.7936 42.8399 40.2618 42.6504 40.6963C42.4609 41.1307 42.1854 41.5223 41.8406 41.8474C41.4958 42.1726 41.0887 42.4246 40.6439 42.5883C40.1992 42.752 39.7258 42.824 39.2525 42.8C8.28564 40.8736 2.03724 14.6497 0.855542 4.61343C0.800687 4.12058 0.850807 3.6217 1.0026 3.14961C1.1544 2.67751 1.40443 2.24291 1.73626 1.87439C2.06808 1.50587 2.47417 1.21178 2.92781 1.01147C3.38145 0.811167 3.87236 0.709181 4.36825 0.712224H12.1869C12.8846 0.71429 13.5657 0.925038 14.1426 1.31736C14.7196 1.70969 15.166 2.26565 15.4244 2.91374L17.1888 7.33295C17.4482 7.96923 17.5144 8.66785 17.3791 9.34152C17.2438 10.0152 16.913 10.6341 16.428 11.1208L12.802 14.7469C12.802 14.7469 14.8902 28.8786 28.9086 30.6269Z"/>
</svg>
